<mxfile host="app.diagrams.net" modified="2024-04-30T10:52:57.649Z" agent="Mozilla/5.0 (Windows NT 10.0; Win64; x64) AppleWebKit/537.36 (KHTML, like Gecko) Chrome/124.0.0.0 Safari/537.36" etag="91QexJC0Vj_xRVmlqcSH" version="24.3.0" type="device">
  <diagram name="Page-1" id="jjw4-v9AaRa5r4L7zg6o">
    <mxGraphModel dx="2284" dy="1846" grid="1" gridSize="10" guides="1" tooltips="1" connect="1" arrows="1" fold="1" page="1" pageScale="1" pageWidth="850" pageHeight="1100" math="0" shadow="0">
      <root>
        <mxCell id="0" />
        <mxCell id="1" parent="0" />
        <mxCell id="DAcNwTOTf9xVFnaMx5Ye-1" value="Productos" style="rounded=0;whiteSpace=wrap;html=1;" parent="1" vertex="1">
          <mxGeometry x="110" y="195" width="120" height="60" as="geometry" />
        </mxCell>
        <mxCell id="DAcNwTOTf9xVFnaMx5Ye-3" value="Usuarios" style="rounded=0;whiteSpace=wrap;html=1;" parent="1" vertex="1">
          <mxGeometry x="110" y="430" width="120" height="60" as="geometry" />
        </mxCell>
        <mxCell id="DAcNwTOTf9xVFnaMx5Ye-4" value="Marcas" style="rounded=0;whiteSpace=wrap;html=1;" parent="1" vertex="1">
          <mxGeometry x="-260" y="195" width="120" height="60" as="geometry" />
        </mxCell>
        <mxCell id="DAcNwTOTf9xVFnaMx5Ye-11" value="Nombre" style="ellipse;whiteSpace=wrap;html=1;" parent="1" vertex="1">
          <mxGeometry x="-235" y="120" width="70" height="30" as="geometry" />
        </mxCell>
        <mxCell id="DAcNwTOTf9xVFnaMx5Ye-12" value="" style="endArrow=none;html=1;rounded=0;entryX=0.5;entryY=1;entryDx=0;entryDy=0;exitX=0.5;exitY=0;exitDx=0;exitDy=0;" parent="1" source="DAcNwTOTf9xVFnaMx5Ye-4" target="DAcNwTOTf9xVFnaMx5Ye-11" edge="1">
          <mxGeometry width="50" height="50" relative="1" as="geometry">
            <mxPoint x="40" y="190" as="sourcePoint" />
            <mxPoint x="90" y="140" as="targetPoint" />
          </mxGeometry>
        </mxCell>
        <mxCell id="DAcNwTOTf9xVFnaMx5Ye-15" value="Foto" style="ellipse;whiteSpace=wrap;html=1;" parent="1" vertex="1">
          <mxGeometry x="300" y="225" width="90" height="30" as="geometry" />
        </mxCell>
        <mxCell id="DAcNwTOTf9xVFnaMx5Ye-17" value="Nombre" style="ellipse;whiteSpace=wrap;html=1;" parent="1" vertex="1">
          <mxGeometry x="270" y="-100" width="90" height="30" as="geometry" />
        </mxCell>
        <mxCell id="DAcNwTOTf9xVFnaMx5Ye-19" value="Categorías" style="rounded=0;whiteSpace=wrap;html=1;" parent="1" vertex="1">
          <mxGeometry x="110" y="-10" width="120" height="60" as="geometry" />
        </mxCell>
        <mxCell id="DAcNwTOTf9xVFnaMx5Ye-21" value="Color" style="ellipse;whiteSpace=wrap;html=1;" parent="1" vertex="1">
          <mxGeometry x="300" y="180" width="90" height="30" as="geometry" />
        </mxCell>
        <mxCell id="DAcNwTOTf9xVFnaMx5Ye-22" value="" style="endArrow=none;html=1;rounded=0;entryX=0;entryY=0.5;entryDx=0;entryDy=0;exitX=1;exitY=0.5;exitDx=0;exitDy=0;" parent="1" source="DAcNwTOTf9xVFnaMx5Ye-1" target="DAcNwTOTf9xVFnaMx5Ye-21" edge="1">
          <mxGeometry width="50" height="50" relative="1" as="geometry">
            <mxPoint x="240" y="250" as="sourcePoint" />
            <mxPoint x="250" y="330" as="targetPoint" />
          </mxGeometry>
        </mxCell>
        <mxCell id="DAcNwTOTf9xVFnaMx5Ye-23" value="" style="endArrow=none;html=1;rounded=0;exitX=1;exitY=0.5;exitDx=0;exitDy=0;entryX=0;entryY=0.5;entryDx=0;entryDy=0;" parent="1" source="DAcNwTOTf9xVFnaMx5Ye-1" target="DAcNwTOTf9xVFnaMx5Ye-15" edge="1">
          <mxGeometry width="50" height="50" relative="1" as="geometry">
            <mxPoint x="230" y="350" as="sourcePoint" />
            <mxPoint x="280" y="300" as="targetPoint" />
          </mxGeometry>
        </mxCell>
        <mxCell id="DAcNwTOTf9xVFnaMx5Ye-25" value="Características" style="ellipse;whiteSpace=wrap;html=1;" parent="1" vertex="1">
          <mxGeometry x="300" y="270" width="90" height="30" as="geometry" />
        </mxCell>
        <mxCell id="DAcNwTOTf9xVFnaMx5Ye-26" value="" style="endArrow=none;html=1;rounded=0;exitX=0;exitY=0.5;exitDx=0;exitDy=0;entryX=1;entryY=0.5;entryDx=0;entryDy=0;" parent="1" source="DAcNwTOTf9xVFnaMx5Ye-25" target="DAcNwTOTf9xVFnaMx5Ye-1" edge="1">
          <mxGeometry width="50" height="50" relative="1" as="geometry">
            <mxPoint x="230" y="340" as="sourcePoint" />
            <mxPoint x="270" y="300" as="targetPoint" />
          </mxGeometry>
        </mxCell>
        <mxCell id="DAcNwTOTf9xVFnaMx5Ye-31" value="Tienen" style="rhombus;whiteSpace=wrap;html=1;" parent="1" vertex="1">
          <mxGeometry x="-50" y="185" width="80" height="80" as="geometry" />
        </mxCell>
        <mxCell id="DAcNwTOTf9xVFnaMx5Ye-33" value="descripción" style="ellipse;whiteSpace=wrap;html=1;" parent="1" vertex="1">
          <mxGeometry x="320" y="-50" width="90" height="30" as="geometry" />
        </mxCell>
        <mxCell id="DAcNwTOTf9xVFnaMx5Ye-34" value="" style="endArrow=none;html=1;rounded=0;entryX=0;entryY=0.5;entryDx=0;entryDy=0;exitX=1;exitY=0.5;exitDx=0;exitDy=0;" parent="1" source="DAcNwTOTf9xVFnaMx5Ye-19" target="DAcNwTOTf9xVFnaMx5Ye-17" edge="1">
          <mxGeometry width="50" height="50" relative="1" as="geometry">
            <mxPoint x="240" y="70" as="sourcePoint" />
            <mxPoint x="290" y="20" as="targetPoint" />
          </mxGeometry>
        </mxCell>
        <mxCell id="DAcNwTOTf9xVFnaMx5Ye-35" value="" style="endArrow=none;html=1;rounded=0;entryX=0;entryY=0.5;entryDx=0;entryDy=0;exitX=1;exitY=0.5;exitDx=0;exitDy=0;" parent="1" source="DAcNwTOTf9xVFnaMx5Ye-19" target="DAcNwTOTf9xVFnaMx5Ye-33" edge="1">
          <mxGeometry width="50" height="50" relative="1" as="geometry">
            <mxPoint x="240" y="150" as="sourcePoint" />
            <mxPoint x="290" y="100" as="targetPoint" />
          </mxGeometry>
        </mxCell>
        <mxCell id="DAcNwTOTf9xVFnaMx5Ye-36" value="Tienen" style="rhombus;whiteSpace=wrap;html=1;" parent="1" vertex="1">
          <mxGeometry x="130" y="300" width="80" height="80" as="geometry" />
        </mxCell>
        <mxCell id="DAcNwTOTf9xVFnaMx5Ye-37" value="Tienen" style="rhombus;whiteSpace=wrap;html=1;" parent="1" vertex="1">
          <mxGeometry x="130" y="80" width="80" height="80" as="geometry" />
        </mxCell>
        <mxCell id="DAcNwTOTf9xVFnaMx5Ye-38" value="Nombre" style="ellipse;whiteSpace=wrap;html=1;" parent="1" vertex="1">
          <mxGeometry x="280" y="380" width="70" height="30" as="geometry" />
        </mxCell>
        <mxCell id="DAcNwTOTf9xVFnaMx5Ye-39" value="Apellidos" style="ellipse;whiteSpace=wrap;html=1;" parent="1" vertex="1">
          <mxGeometry x="280" y="420" width="70" height="30" as="geometry" />
        </mxCell>
        <mxCell id="DAcNwTOTf9xVFnaMx5Ye-40" value="Rol" style="ellipse;whiteSpace=wrap;html=1;" parent="1" vertex="1">
          <mxGeometry x="280" y="460" width="70" height="30" as="geometry" />
        </mxCell>
        <mxCell id="DAcNwTOTf9xVFnaMx5Ye-41" value="Nombre de usuario" style="ellipse;whiteSpace=wrap;html=1;" parent="1" vertex="1">
          <mxGeometry x="280" y="500" width="70" height="30" as="geometry" />
        </mxCell>
        <mxCell id="DAcNwTOTf9xVFnaMx5Ye-42" value="" style="endArrow=none;html=1;rounded=0;exitX=1;exitY=0.5;exitDx=0;exitDy=0;entryX=0;entryY=0.5;entryDx=0;entryDy=0;" parent="1" source="DAcNwTOTf9xVFnaMx5Ye-4" target="DAcNwTOTf9xVFnaMx5Ye-31" edge="1">
          <mxGeometry width="50" height="50" relative="1" as="geometry">
            <mxPoint x="-130" y="370" as="sourcePoint" />
            <mxPoint x="-80" y="320" as="targetPoint" />
          </mxGeometry>
        </mxCell>
        <mxCell id="DAcNwTOTf9xVFnaMx5Ye-43" value="" style="endArrow=none;html=1;rounded=0;entryX=1;entryY=0.5;entryDx=0;entryDy=0;exitX=0;exitY=0.5;exitDx=0;exitDy=0;" parent="1" source="DAcNwTOTf9xVFnaMx5Ye-1" target="DAcNwTOTf9xVFnaMx5Ye-31" edge="1">
          <mxGeometry width="50" height="50" relative="1" as="geometry">
            <mxPoint x="-30" y="350" as="sourcePoint" />
            <mxPoint x="20" y="300" as="targetPoint" />
          </mxGeometry>
        </mxCell>
        <mxCell id="DAcNwTOTf9xVFnaMx5Ye-44" value="0..n" style="text;html=1;align=center;verticalAlign=middle;whiteSpace=wrap;rounded=0;" parent="1" vertex="1">
          <mxGeometry x="60" y="195" width="60" height="30" as="geometry" />
        </mxCell>
        <mxCell id="DAcNwTOTf9xVFnaMx5Ye-45" value="1" style="text;html=1;align=center;verticalAlign=middle;whiteSpace=wrap;rounded=0;" parent="1" vertex="1">
          <mxGeometry x="-160" y="200" width="60" height="30" as="geometry" />
        </mxCell>
        <mxCell id="DAcNwTOTf9xVFnaMx5Ye-46" value="" style="endArrow=none;html=1;rounded=0;exitX=0.5;exitY=0;exitDx=0;exitDy=0;entryX=0.5;entryY=1;entryDx=0;entryDy=0;" parent="1" source="DAcNwTOTf9xVFnaMx5Ye-1" target="DAcNwTOTf9xVFnaMx5Ye-37" edge="1">
          <mxGeometry width="50" height="50" relative="1" as="geometry">
            <mxPoint x="360" y="140" as="sourcePoint" />
            <mxPoint x="410" y="90" as="targetPoint" />
          </mxGeometry>
        </mxCell>
        <mxCell id="DAcNwTOTf9xVFnaMx5Ye-47" value="" style="endArrow=none;html=1;rounded=0;exitX=0.5;exitY=0;exitDx=0;exitDy=0;entryX=0.5;entryY=1;entryDx=0;entryDy=0;" parent="1" source="DAcNwTOTf9xVFnaMx5Ye-37" target="DAcNwTOTf9xVFnaMx5Ye-19" edge="1">
          <mxGeometry width="50" height="50" relative="1" as="geometry">
            <mxPoint x="370" y="120" as="sourcePoint" />
            <mxPoint x="420" y="70" as="targetPoint" />
          </mxGeometry>
        </mxCell>
        <mxCell id="DAcNwTOTf9xVFnaMx5Ye-48" value="0..n" style="text;html=1;align=center;verticalAlign=middle;whiteSpace=wrap;rounded=0;" parent="1" vertex="1">
          <mxGeometry x="190" y="50" width="60" height="30" as="geometry" />
        </mxCell>
        <mxCell id="DAcNwTOTf9xVFnaMx5Ye-49" value="0..n" style="text;html=1;align=center;verticalAlign=middle;whiteSpace=wrap;rounded=0;" parent="1" vertex="1">
          <mxGeometry x="190" y="165" width="60" height="30" as="geometry" />
        </mxCell>
        <mxCell id="DAcNwTOTf9xVFnaMx5Ye-50" value="" style="endArrow=none;html=1;rounded=0;entryX=0.5;entryY=1;entryDx=0;entryDy=0;" parent="1" source="DAcNwTOTf9xVFnaMx5Ye-36" target="DAcNwTOTf9xVFnaMx5Ye-1" edge="1">
          <mxGeometry width="50" height="50" relative="1" as="geometry">
            <mxPoint x="-20" y="390" as="sourcePoint" />
            <mxPoint x="30" y="340" as="targetPoint" />
          </mxGeometry>
        </mxCell>
        <mxCell id="DAcNwTOTf9xVFnaMx5Ye-51" value="" style="endArrow=none;html=1;rounded=0;entryX=0.5;entryY=1;entryDx=0;entryDy=0;exitX=0.5;exitY=0;exitDx=0;exitDy=0;" parent="1" source="DAcNwTOTf9xVFnaMx5Ye-3" target="DAcNwTOTf9xVFnaMx5Ye-36" edge="1">
          <mxGeometry width="50" height="50" relative="1" as="geometry">
            <mxPoint x="-20" y="410" as="sourcePoint" />
            <mxPoint x="30" y="360" as="targetPoint" />
          </mxGeometry>
        </mxCell>
        <mxCell id="DAcNwTOTf9xVFnaMx5Ye-52" value="0..n" style="text;html=1;align=center;verticalAlign=middle;whiteSpace=wrap;rounded=0;" parent="1" vertex="1">
          <mxGeometry x="110" y="255" width="60" height="30" as="geometry" />
        </mxCell>
        <mxCell id="DAcNwTOTf9xVFnaMx5Ye-53" value="0..n" style="text;html=1;align=center;verticalAlign=middle;whiteSpace=wrap;rounded=0;" parent="1" vertex="1">
          <mxGeometry x="110" y="400" width="60" height="30" as="geometry" />
        </mxCell>
        <mxCell id="DAcNwTOTf9xVFnaMx5Ye-54" value="" style="endArrow=none;html=1;rounded=0;entryX=0;entryY=0.5;entryDx=0;entryDy=0;exitX=1;exitY=0.5;exitDx=0;exitDy=0;" parent="1" source="DAcNwTOTf9xVFnaMx5Ye-3" target="DAcNwTOTf9xVFnaMx5Ye-38" edge="1">
          <mxGeometry width="50" height="50" relative="1" as="geometry">
            <mxPoint x="260" y="490" as="sourcePoint" />
            <mxPoint x="430" y="230" as="targetPoint" />
          </mxGeometry>
        </mxCell>
        <mxCell id="DAcNwTOTf9xVFnaMx5Ye-55" value="" style="endArrow=none;html=1;rounded=0;entryX=0;entryY=0.5;entryDx=0;entryDy=0;exitX=1;exitY=0.5;exitDx=0;exitDy=0;" parent="1" source="DAcNwTOTf9xVFnaMx5Ye-3" target="DAcNwTOTf9xVFnaMx5Ye-39" edge="1">
          <mxGeometry width="50" height="50" relative="1" as="geometry">
            <mxPoint x="190" y="560" as="sourcePoint" />
            <mxPoint x="240" y="510" as="targetPoint" />
          </mxGeometry>
        </mxCell>
        <mxCell id="DAcNwTOTf9xVFnaMx5Ye-56" value="" style="endArrow=none;html=1;rounded=0;entryX=0;entryY=0.5;entryDx=0;entryDy=0;exitX=1;exitY=0.5;exitDx=0;exitDy=0;" parent="1" source="DAcNwTOTf9xVFnaMx5Ye-3" target="DAcNwTOTf9xVFnaMx5Ye-40" edge="1">
          <mxGeometry width="50" height="50" relative="1" as="geometry">
            <mxPoint x="180" y="590" as="sourcePoint" />
            <mxPoint x="230" y="540" as="targetPoint" />
          </mxGeometry>
        </mxCell>
        <mxCell id="DAcNwTOTf9xVFnaMx5Ye-57" value="" style="endArrow=none;html=1;rounded=0;entryX=0;entryY=0.5;entryDx=0;entryDy=0;exitX=1;exitY=0.5;exitDx=0;exitDy=0;" parent="1" source="DAcNwTOTf9xVFnaMx5Ye-3" target="DAcNwTOTf9xVFnaMx5Ye-41" edge="1">
          <mxGeometry width="50" height="50" relative="1" as="geometry">
            <mxPoint x="170" y="570" as="sourcePoint" />
            <mxPoint x="220" y="520" as="targetPoint" />
          </mxGeometry>
        </mxCell>
        <mxCell id="DAcNwTOTf9xVFnaMx5Ye-58" value="" style="endArrow=none;html=1;rounded=0;entryX=1;entryY=0.5;entryDx=0;entryDy=0;exitX=0;exitY=0.5;exitDx=0;exitDy=0;" parent="1" source="DAcNwTOTf9xVFnaMx5Ye-60" target="DAcNwTOTf9xVFnaMx5Ye-3" edge="1">
          <mxGeometry width="50" height="50" relative="1" as="geometry">
            <mxPoint x="420" y="450" as="sourcePoint" />
            <mxPoint x="240" y="530" as="targetPoint" />
          </mxGeometry>
        </mxCell>
        <mxCell id="DAcNwTOTf9xVFnaMx5Ye-60" value="Contraseña" style="ellipse;whiteSpace=wrap;html=1;" parent="1" vertex="1">
          <mxGeometry x="440" y="430" width="70" height="30" as="geometry" />
        </mxCell>
      </root>
    </mxGraphModel>
  </diagram>
</mxfile>
